<svg width="88" height="94" viewBox="0 0 88 94" fill="none" xmlns="http://www.w3.org/2000/svg">
<path d="M58.4283 27.2047L23.4866 62.3997C23.1526 62.8378 22.7832 63.2571 22.3828 63.6605C17.1889 68.8961 8.85084 69.0083 3.75941 63.9204C-1.3277 58.8282 -1.24112 50.4593 3.95276 45.2273C4.14684 45.0318 4.34164 44.8471 4.54365 44.6712L40.0921 8.86499L58.4283 27.2047Z" fill="#42E4B3"/>
<path d="M39.5338 9.45904C34.329 14.6831 34.228 23.0516 39.3083 28.1507C44.3885 33.2498 52.7261 33.1485 57.9309 27.9244C63.1357 22.7003 63.2366 14.3318 58.1564 9.23272C53.0762 4.13365 44.7385 4.23498 39.5338 9.45904Z" fill="#168CF6"/>
<path d="M83.3532 53.4421C82.9521 53.8447 82.5351 54.2162 82.0993 54.5522L48.8675 87.9072C52.9532 82.673 52.6805 75.1796 47.9873 70.4733C43.0921 65.56 35.1862 65.4738 29.9556 70.1453L65.5667 34.4021C70.7931 29.7502 78.6911 29.8479 83.579 34.7497C88.6575 39.8506 88.5601 48.2159 83.3532 53.4421Z" fill="#168CF6"/>
<path d="M65.5473 34.4217L64.4023 35.5709C64.5777 35.3674 64.7609 35.1719 64.9557 34.9764C65.1505 34.7808 65.3453 34.5976 65.5473 34.4217Z" fill="#4D4D4D"/>
<path d="M48.8675 87.9072L47.263 89.5177L28.9585 71.1461L29.9556 70.1453C35.1863 65.4738 43.0914 65.56 47.9873 70.4734C52.6805 75.1796 52.9525 82.6731 48.8675 87.9072Z" fill="#4D4D4D"/>
<path d="M48.8674 87.9072C48.5326 88.3453 48.1625 88.7632 47.7614 89.1658C42.5581 94.3883 34.2201 94.4897 29.138 89.3924C24.0595 84.2916 24.1605 75.9226 29.3638 70.7C29.5586 70.5045 29.7534 70.3206 29.9554 70.1446C35.1861 65.4731 43.0913 65.5593 47.9872 70.4727C52.6804 75.1796 52.9524 82.6731 48.8674 87.9072Z" fill="#42E4B3"/>
</svg>
