<svg width="55" height="55" viewBox="0 0 55 55" fill="none" xmlns="http://www.w3.org/2000/svg">
<circle opacity="0.3" cx="27.5" cy="27.5" r="27.5" fill="#42E4B3"/>
<g clip-path="url(#clip0_3049_705)">
<path d="M38.6442 23.387V22.6443C38.6442 16.2084 33.4366 11.0001 27 11.0001C20.5794 11.0001 15.3558 16.2237 15.3558 22.6443V23.387C12.8018 24.1113 10.8507 26.5503 11.009 29.4986C11.18 32.6851 13.8531 35.1777 16.9983 35.1777C18.5483 35.1777 19.805 33.9268 19.805 32.3759V25.9606C19.805 24.4924 18.6728 23.282 17.2382 23.1686V22.6443C17.2382 17.2617 21.6173 12.8825 27 12.8825C32.3956 12.8825 36.7618 17.2482 36.7618 22.6443V23.1684C35.3288 23.2803 34.1949 24.4914 34.1949 25.9607V32.3759C34.1949 33.8439 35.322 35.0464 36.7618 35.1671C36.7618 37.7146 34.7671 39.4863 32.5297 39.4863H30.4809C30.1044 38.5321 29.1738 37.8549 28.0875 37.8549H25.9124C24.4939 37.8549 23.3398 39.009 23.3398 40.4275C23.3398 41.8459 24.4939 43 25.9124 43H28.0875C29.1738 43 30.1044 42.3228 30.4809 41.3686H32.5296C35.9011 41.3686 38.6441 38.6254 38.6441 35.2535V34.9449C41.0457 34.2527 42.8518 32.0926 42.9909 29.4986C43.1487 26.5604 41.2071 24.1139 38.6442 23.387ZM17.9227 25.9606V32.3759C17.9227 32.8513 17.5572 33.3066 16.9256 33.2946C14.7769 33.2525 13.0036 31.5407 12.8886 29.3978C12.7605 27.0125 14.6497 25.0414 17.0091 25.0414H17.0252C17.5201 25.0433 17.9227 25.4556 17.9227 25.9606ZM28.0875 41.1176H25.9124C25.5319 41.1176 25.2222 40.8079 25.2222 40.4274C25.2222 40.0468 25.5319 39.7372 25.9124 39.7372H28.0875C28.4687 39.7372 28.7786 40.0478 28.7777 40.4292C28.7766 40.8089 28.4675 41.1176 28.0875 41.1176ZM41.1113 29.3978C40.9963 31.5407 39.223 33.2525 37.0743 33.2946C36.4544 33.3072 36.0772 32.8615 36.0772 32.3759V25.9606C36.0772 25.4556 36.4798 25.0433 36.9711 25.0414H36.9908C39.3505 25.0414 41.2394 27.0128 41.1113 29.3978Z" fill="#168CF6"/>
<path d="M27.6656 34.3694L32.0116 30.0235C33.3654 28.6696 33.3655 26.4784 32.0116 25.1245C30.7662 23.8791 28.6081 23.6294 27.0001 25.2369C25.4139 23.6512 23.2528 23.8602 21.9886 25.1244C20.6347 26.4783 20.6346 28.6695 21.9886 30.0235L26.3346 34.3694C26.7021 34.7369 27.298 34.737 27.6656 34.3694ZM23.3195 26.4554C23.9363 25.8388 24.9397 25.8387 25.5565 26.4554L26.3345 27.2334C26.702 27.601 27.2979 27.601 27.6655 27.2334L28.4435 26.4554C29.0603 25.8387 30.0637 25.8386 30.6804 26.4554C31.2986 27.0735 31.2987 28.0741 30.6804 28.6924L27 32.3728L23.3195 28.6924C22.7014 28.0743 22.7013 27.0737 23.3195 26.4554Z" fill="#168CF6"/>
</g>
<defs>
<clipPath id="clip0_3049_705">
<rect width="32" height="32" fill="white" transform="translate(11 11)"/>
</clipPath>
</defs>
</svg>
