<svg width="55" height="55" viewBox="0 0 55 55" fill="none" xmlns="http://www.w3.org/2000/svg">
<circle opacity="0.3" cx="27.5" cy="27.5" r="27.5" fill="#42E4B3"/>
<path d="M27.0968 35.7097C27.0968 35.9768 26.88 36.1935 26.6129 36.1935C26.3458 36.1935 26.129 35.9768 26.129 35.7097C26.129 35.4426 26.3458 35.2258 26.6129 35.2258C26.88 35.2258 27.0968 35.4426 27.0968 35.7097ZM28.5484 35.2258C28.2813 35.2258 28.0645 35.4426 28.0645 35.7097C28.0645 35.9768 28.2813 36.1935 28.5484 36.1935C28.8155 36.1935 29.0323 35.9768 29.0323 35.7097C29.0323 35.4426 28.8155 35.2258 28.5484 35.2258ZM25.6452 26.0323C25.6452 28.4332 23.6913 30.3871 21.2903 30.3871C18.8894 30.3871 16.9355 28.4332 16.9355 26.0323C16.9355 23.6313 18.8894 21.6774 21.2903 21.6774C23.6913 21.6774 25.6452 23.6313 25.6452 26.0323ZM24.6387 25.5484C24.5565 24.976 24.331 24.4505 23.999 24.0077L23.3066 24.7002C23.475 24.9537 23.5979 25.2402 23.6608 25.5484H24.6387ZM22.7419 26.0323C22.7419 25.2319 22.0906 24.5806 21.2903 24.5806C20.49 24.5806 19.8387 25.2319 19.8387 26.0323C19.8387 26.8326 20.49 27.4839 21.2903 27.4839C22.0906 27.4839 22.7419 26.8326 22.7419 26.0323ZM23.3148 23.3235C22.8721 22.9916 22.3466 22.7661 21.7742 22.6839V23.6618C22.0824 23.7247 22.3689 23.8476 22.6224 24.016L23.3148 23.3235ZM17.9419 25.5484H18.9198C19.1129 24.6019 19.86 23.8548 20.8065 23.6618V22.6839C19.3263 22.8968 18.1548 24.0682 17.9419 25.5484ZM20.8065 29.3806V28.4027C19.86 28.2097 19.1129 27.4626 18.9198 26.5161H17.9419C18.1548 27.9963 19.3263 29.1677 20.8065 29.3806ZM24.6387 26.5161H23.6608C23.4677 27.4626 22.7206 28.2097 21.7742 28.4027V29.3806C23.2544 29.1677 24.4258 27.9963 24.6387 26.5161ZM20.8065 32.3226H21.7742V31.3548H20.8065V32.3226ZM22.7419 32.3226H23.7097V31.3548H22.7419V32.3226ZM24.6774 32.3226H25.6452V31.3548H24.6774V32.3226ZM16.9355 32.3226H17.9032V31.3548H16.9355V32.3226ZM18.871 32.3226H19.8387V31.3548H18.871V32.3226ZM15 15.3871C15 13.5194 16.5194 12 18.3871 12C20.2548 12 21.7742 13.5194 21.7742 15.3871C21.7742 17.2548 20.2548 18.7742 18.3871 18.7742C16.5194 18.7742 15 17.2548 15 15.3871ZM20.8065 15.3871C20.8065 14.895 20.6569 14.4377 20.4034 14.055L18.871 15.5874V17.7576C19.9737 17.5326 20.8065 16.5552 20.8065 15.3871ZM18.3871 12.9677C17.895 12.9677 17.4377 13.1173 17.055 13.3708L18.3871 14.7029L19.7192 13.3708C19.3365 13.1173 18.8792 12.9677 18.3871 12.9677ZM15.9677 15.3871C15.9677 16.5552 16.8005 17.5326 17.9032 17.7576V15.5874L16.3708 14.055C16.1173 14.4377 15.9677 14.895 15.9677 15.3871ZM22.7419 15.3871C22.7419 13.5194 24.2613 12 26.129 12C27.9968 12 29.5161 13.5194 29.5161 15.3871C29.5161 17.2548 27.9968 18.7742 26.129 18.7742C24.2613 18.7742 22.7419 17.2548 22.7419 15.3871ZM26.129 17.8065C26.6211 17.8065 27.0784 17.6569 27.4611 17.4034L25.9287 15.871H23.7585C23.9835 16.9737 24.961 17.8065 26.129 17.8065ZM28.5484 15.3871C28.5484 14.895 28.3989 14.4377 28.1453 14.055L26.8132 15.3871L28.1453 16.7192C28.3989 16.3365 28.5484 15.8792 28.5484 15.3871ZM23.7585 14.9032H25.9287L27.4611 13.3708C27.0784 13.1173 26.6211 12.9677 26.129 12.9677C24.961 12.9677 23.9835 13.8005 23.7585 14.9032ZM31.4758 17.7823C30.1553 16.4618 30.1553 14.3129 31.4758 12.9924C32.7963 11.6719 34.9452 11.6719 36.2656 12.9924C37.5861 14.3129 37.5861 16.4618 36.2656 17.7823C35.6052 18.4427 34.7381 18.7727 33.8705 18.7727C33.0029 18.7727 32.1363 18.4423 31.4758 17.7823ZM35.5819 17.0981C35.9298 16.7497 36.1476 16.3205 36.2385 15.871H34.0713L32.5369 17.4053C33.4756 18.0261 34.756 17.924 35.5819 17.0981ZM35.5819 13.6761C35.2335 13.3282 34.8048 13.1105 34.3548 13.0195V14.9032H36.2385C36.1476 14.4537 35.9298 14.0245 35.5819 13.6761ZM31.8527 16.7211L33.3871 15.1868V13.0195C32.9371 13.1105 32.5084 13.3282 32.16 13.6761C31.334 14.5026 31.2319 15.7824 31.8527 16.7211ZM42.0721 29.4194H43.0645V30.3871H42.0721C41.9719 31.4918 41.5345 32.4997 40.8619 33.3068L41.5645 34.0094L40.8803 34.6936L40.1777 33.991C39.3711 34.664 38.3627 35.101 37.2581 35.2011V36.1935H36.2903V35.2011C35.1856 35.101 34.1777 34.6635 33.3706 33.991L32.6681 34.6936L31.9839 34.0094L32.6864 33.3068C32.0134 32.5002 31.5765 31.4918 31.4763 30.3871H30.4839V29.4194H31.4763C31.5765 28.3147 32.0139 27.3068 32.6864 26.4997L31.9839 25.7971L32.6681 25.1129L33.3706 25.8155C34.1773 25.1424 35.1856 24.7055 36.2903 24.6053V23.6129H37.2581V24.6053C38.3627 24.7055 39.3706 25.1429 40.1777 25.8155L40.8803 25.1129L41.5645 25.7971L40.8619 26.4997C41.535 27.3068 41.9719 28.3147 42.0721 29.4194ZM41.129 29.9032C41.129 27.5023 39.1752 25.5484 36.7742 25.5484C34.3732 25.5484 32.4194 27.5023 32.4194 29.9032C32.4194 32.3042 34.3732 34.2581 36.7742 34.2581C39.1752 34.2581 41.129 32.3042 41.129 29.9032ZM40.1613 29.9032C40.1613 31.771 38.6419 33.2903 36.7742 33.2903C34.9065 33.2903 33.3871 31.771 33.3871 29.9032C33.3871 28.0355 34.9065 26.5161 36.7742 26.5161C38.6419 26.5161 40.1613 28.0355 40.1613 29.9032ZM39.1935 29.9032C39.1935 28.5692 38.1082 27.4839 36.7742 27.4839C35.4402 27.4839 34.3548 28.5692 34.3548 29.9032C34.3548 31.2373 35.4402 32.3226 36.7742 32.3226C38.1082 32.3226 39.1935 31.2373 39.1935 29.9032ZM38.2258 29.9032C38.2258 30.7035 37.5745 31.3548 36.7742 31.3548C35.9739 31.3548 35.3226 30.7035 35.3226 29.9032C35.3226 29.1029 35.9739 28.4516 36.7742 28.4516C37.5745 28.4516 38.2258 29.1029 38.2258 29.9032ZM37.2581 29.9032C37.2581 29.6366 37.0408 29.4194 36.7742 29.4194C36.5076 29.4194 36.2903 29.6366 36.2903 29.9032C36.2903 30.1698 36.5076 30.3871 36.7742 30.3871C37.0408 30.3871 37.2581 30.1698 37.2581 29.9032ZM44.2263 27.8506L45 28.0989V31.7081L44.2263 31.9563C43.8948 32.0623 43.6229 32.324 43.4797 32.6734C43.3292 33.0377 43.3374 33.4142 43.4956 33.7219L43.8673 34.4444L41.3153 36.9963L40.5929 36.6247C40.2856 36.4665 39.9087 36.4582 39.5603 36.6024C39.195 36.7524 38.9337 37.0244 38.8273 37.3558L38.5785 38.129H35.8065H34.9698H31.9355V39.0968H35.8065C36.3402 39.0968 36.7742 39.5308 36.7742 40.0645V41.0323C36.7742 41.566 36.3402 42 35.8065 42H21.2903C20.7566 42 20.3226 41.566 20.3226 41.0323V40.0645C20.3226 39.5308 20.7566 39.0968 21.2903 39.0968H25.1613V38.129H17.4194C16.0853 38.129 15 37.0437 15 35.7097V22.1613C15 20.8273 16.0853 19.7419 17.4194 19.7419H39.6774C41.0115 19.7419 42.0968 20.8273 42.0968 22.1613V23.5926L43.8668 25.3626L43.4952 26.085C43.3369 26.3927 43.3287 26.7687 43.4729 27.1176C43.6229 27.4829 43.8948 27.7447 44.2263 27.8506ZM17.4194 37.1613H34.6331C34.5005 36.9198 34.2823 36.7224 34.004 36.6082C33.6406 36.4573 33.2632 36.466 32.956 36.6242L32.2335 36.9958L29.6816 34.4439L30.0532 33.7215C30.2115 33.4137 30.2197 33.0373 30.0755 32.6889C29.9255 32.3235 29.6535 32.0623 29.3221 31.9558L28.5484 31.7076V28.0984L29.3221 27.8502C29.6535 27.7442 29.9255 27.4824 30.0687 27.1331C30.2197 26.7687 30.211 26.3923 30.0527 26.085L29.6811 25.3626L32.2331 22.8106L32.9555 23.1823C33.2627 23.341 33.6392 23.3487 33.9881 23.2045C34.3534 23.0545 34.6147 22.7826 34.7211 22.4511L34.9698 21.6774H38.579L38.8273 22.4511C38.9332 22.7826 39.195 23.0545 39.5444 23.1977C39.9087 23.3492 40.2852 23.3405 40.5924 23.1818L41.129 22.906V22.1613C41.129 21.361 40.4777 20.7097 39.6774 20.7097H17.4194C16.619 20.7097 15.9677 21.361 15.9677 22.1613V33.2903H29.0323V34.2581H15.9677V35.7097C15.9677 36.51 16.619 37.1613 17.4194 37.1613ZM35.8065 40.0645H21.2903V41.0323H35.8069L35.8065 40.0645ZM30.9677 38.129H26.129V39.0968H30.9677V38.129ZM44.0323 28.8044L43.9311 28.7719C43.3273 28.5789 42.8366 28.1153 42.584 27.5008C42.3256 26.8752 42.346 26.2026 42.6348 25.6418L42.6832 25.5479L41.1295 23.9942L41.0352 24.0426C40.4748 24.331 39.8018 24.3513 39.1902 24.0987C38.5621 23.8408 38.0985 23.3502 37.9055 22.7463L37.8731 22.6452H35.6758L35.6434 22.7463C35.4503 23.3502 34.9868 23.8408 34.3723 24.0934C33.7466 24.3513 33.0735 24.3315 32.5132 24.0426L32.4194 23.9942L30.8656 25.5479L30.914 25.6423C31.2029 26.2026 31.2232 26.8752 30.9702 27.4873C30.7123 28.1153 30.2216 28.5789 29.6177 28.7719L29.5161 28.8044V31.0016L29.6173 31.034C30.2211 31.2271 30.7118 31.6906 30.9644 32.3052C31.2227 32.9303 31.2024 33.6034 30.9135 34.1637L30.8652 34.2581L32.4189 35.8118L32.5132 35.7634C33.0735 35.4745 33.7466 35.4542 34.3582 35.7073C34.9863 35.9652 35.4498 36.4558 35.6429 37.0597L35.6753 37.1613H35.8065H37.8731L37.9055 37.0602C38.0985 36.4563 38.5621 35.9656 39.1766 35.7131C39.8018 35.4547 40.4744 35.4745 41.0356 35.7639L41.1295 35.8123L42.6832 34.2585L42.6348 34.1642C42.346 33.6034 42.3256 32.9308 42.5787 32.3192C42.8366 31.6911 43.3273 31.2276 43.9311 31.0345L44.0323 31.0021V28.8044Z" fill="#168CF6"/>
</svg>
