<svg width="55" height="55" viewBox="0 0 55 55" fill="none" xmlns="http://www.w3.org/2000/svg">
<circle opacity="0.3" cx="27.5" cy="27.5" r="27.5" fill="#42E4B3"/>
<g clip-path="url(#clip0_3049_801)">
<path d="M32.1089 28.4589H30.1585V27.2284C32.0624 26.1469 33.3496 24.1005 33.3496 21.7588V18.4761C34.3415 17.7799 34.9918 16.6284 34.9918 15.3271V13H24.6236C22.503 13 20.7778 14.7252 20.7778 16.8458V21.7587C20.7778 24.0478 22.0078 26.0546 23.8414 27.1539V28.4589H21.891C17.2535 28.4589 13.4806 32.2318 13.4806 36.8693V41H40.5192V36.8693C40.5193 32.2318 36.7464 28.4589 32.1089 28.4589ZM22.4198 16.8458C22.4198 15.6306 23.4084 14.642 24.6235 14.642H33.3497V15.3271C33.3497 16.5422 32.3611 17.5308 31.146 17.5308H23.7961C23.3007 17.5308 22.8327 17.6508 22.4198 17.8632V16.8458ZM22.4198 21.7587V20.5491V20.5491C22.4198 19.7902 23.0372 19.1729 23.7961 19.1729H31.146C31.3368 19.1729 31.5242 19.1584 31.7076 19.1314V21.7587C31.7076 24.3193 29.6244 26.4026 27.0637 26.4026C24.503 26.4026 22.4198 24.3194 22.4198 21.7587ZM27.0637 28.0447C27.5636 28.0447 28.05 27.9857 28.5165 27.8749V29.8419C27.9244 30.0014 27.4009 30.3289 26.9999 30.7702C26.599 30.3289 26.0754 30.0014 25.4834 29.8419V27.8434C25.9885 27.9747 26.5181 28.0447 27.0637 28.0447ZM38.8772 39.358H36.0811V36.1415H34.439V39.358H19.5609V36.1415H17.9189V39.358H15.1226V36.8693C15.1226 33.1372 18.1589 30.1009 21.891 30.1009H23.8414V31.3757H24.6624C25.4986 31.3757 26.1789 32.056 26.1789 32.8923V34.5696H27.821V32.8923C27.821 32.056 28.5013 31.3757 29.3375 31.3757H30.1585V30.1009H32.1089C35.8409 30.1009 38.8772 33.1371 38.8772 36.8693V39.358Z" fill="#168CF6"/>
<path d="M26.179 36.1415H27.821V37.699H26.179V36.1415Z" fill="#168CF6"/>
</g>
<defs>
<clipPath id="clip0_3049_801">
<rect width="28" height="28" fill="white" transform="translate(13 13)"/>
</clipPath>
</defs>
</svg>
