<svg width="55" height="55" viewBox="0 0 55 55" fill="none" xmlns="http://www.w3.org/2000/svg">
<circle opacity="0.3" cx="27.5" cy="27.5" r="27.5" fill="#42E4B3"/>
<path d="M21.6753 30.893C22.5439 30.0244 22.5439 28.6109 21.6753 27.7423C21.2544 27.3216 20.695 27.0897 20.0999 27.0897C19.7559 27.0897 19.424 27.1675 19.1239 27.3143C18.0658 25.8004 17.5085 24.0289 17.5085 22.1656C17.5085 17.3968 21.2338 13.4463 25.9893 13.1716C26.3127 13.1529 26.5594 12.8757 26.5409 12.5525C26.5221 12.2291 26.2449 11.9831 25.9217 12.0009C20.5464 12.3115 16.3359 16.7763 16.3359 22.1656C16.3359 24.3157 16.9931 26.358 18.2389 28.0927C17.6696 28.9569 17.7648 30.1334 18.5245 30.893C18.9454 31.3137 19.5048 31.5456 20.0999 31.5456C20.695 31.5456 21.2544 31.3137 21.6753 30.893ZM19.3535 28.5715C19.5593 28.3657 19.8296 28.2627 20.0999 28.2627C20.37 28.2627 20.6403 28.3657 20.8461 28.5715C21.2576 28.9828 21.2576 29.6525 20.8461 30.0638C20.4345 30.4753 19.765 30.4753 19.3535 30.0638C18.9422 29.6525 18.9422 28.983 19.3535 28.5715Z" fill="#168CF6"/>
<path d="M35.5571 32.3126C35.1866 32.3126 34.8382 32.4092 34.5359 32.5785C34.2678 31.7287 33.4722 31.1107 32.535 31.1107C31.9419 31.1107 31.4057 31.3581 31.0239 31.755C30.9179 31.6452 30.8 31.547 30.6726 31.462C32.0239 30.8571 33.2399 29.9585 34.2239 28.8203C35.8201 26.9732 36.6992 24.6098 36.6992 22.1656C36.6992 20.0166 36.0421 17.9731 34.7965 16.2382C35.3658 15.3739 35.2706 14.1977 34.5107 13.4378C33.6421 12.5692 32.2287 12.5692 31.3599 13.4378C30.4913 14.3064 30.4913 15.72 31.3599 16.5886C31.7943 17.023 32.3647 17.2402 32.9353 17.2402C33.2697 17.2402 33.6036 17.1649 33.9105 17.0157C34.9691 18.53 35.5267 20.3029 35.5267 22.1656C35.5267 26.4067 32.6476 29.9917 28.5879 30.9361V27.7803C30.9129 26.9219 32.5013 24.6746 32.5013 22.1656C32.5013 18.8662 29.817 16.1819 26.5174 16.1819C23.2181 16.1819 20.5338 18.866 20.5338 22.1656C20.5338 23.4677 20.9451 24.7059 21.7228 25.746C22.4012 26.653 23.3399 27.3575 24.393 27.7594V36.3835L23.6564 35.1752C23.0375 34.1592 21.7455 33.8296 20.7153 34.4242C19.7354 34.99 19.3532 36.2315 19.8478 37.2555L22.0348 41.6736C22.1371 41.8803 22.3449 42 22.5608 42C22.6482 42 22.7368 41.9805 22.8203 41.9391C23.1105 41.7954 23.2293 41.4436 23.0858 41.1536L20.9011 36.7405C20.6748 36.2715 20.8505 35.7003 21.3017 35.4398C21.7679 35.1706 22.3751 35.3256 22.6553 35.7854L24.4786 38.7771C24.6154 39.0014 24.8848 39.1074 25.1377 39.0364C25.3906 38.9655 25.5655 38.7348 25.5655 38.4718V25.0199C25.5655 24.51 25.9805 24.0953 26.4904 24.0953C27.0004 24.0953 27.4153 24.51 27.4153 25.0199V27.339C27.4151 27.3431 27.4153 27.3472 27.4153 27.3516V36.1548C27.4153 36.4787 27.6776 36.741 28.0015 36.741C28.3254 36.741 28.5879 36.4787 28.5879 36.1548V33.2082C28.5879 32.6982 29.0026 32.2833 29.5126 32.2833C30.0225 32.2833 30.4375 32.6982 30.4375 33.2082V36.3681C30.4375 36.692 30.7 36.9545 31.0237 36.9545C31.3475 36.9545 31.6101 36.692 31.6101 36.3681V33.2082C31.6101 32.6982 32.025 32.2833 32.535 32.2833C33.0449 32.2833 33.4596 32.6982 33.4596 33.2082V36.4077C33.4596 36.7316 33.7222 36.9941 34.046 36.9941C34.3699 36.9941 34.6322 36.7316 34.6322 36.4077V34.41C34.6322 33.9001 35.0472 33.4851 35.5571 33.4851C36.0671 33.4851 36.482 33.9001 36.482 34.41V41.4134C36.482 41.7372 36.7443 41.9998 37.0682 41.9998C37.3921 41.9998 37.6546 41.7372 37.6546 41.4134V34.41C37.6546 33.2535 36.7137 32.3126 35.5571 32.3126ZM32.1891 15.7596C31.7776 15.3481 31.7776 14.6786 32.1891 14.2671C32.3949 14.0613 32.665 13.9585 32.9353 13.9585C33.2056 13.9585 33.4759 14.0613 33.6817 14.2671C34.093 14.6786 34.093 15.3481 33.6817 15.7596C33.2701 16.1709 32.6004 16.1709 32.1891 15.7596ZM21.7063 22.1656C21.7063 19.5126 23.8647 17.3542 26.5177 17.3542C29.1704 17.3542 31.3288 19.5126 31.3288 22.1656C31.3288 24.0337 30.234 25.7217 28.5879 26.5093V25.0199C28.5879 24.6908 28.5115 24.3791 28.3755 24.1014C28.8955 23.6002 29.2029 22.9014 29.2029 22.1656C29.2029 20.6847 27.9983 19.4801 26.5177 19.4801C25.0368 19.4801 23.8322 20.6847 23.8322 22.1656C23.8322 22.8799 24.1231 23.5663 24.6232 24.0666C24.4765 24.3527 24.393 24.6768 24.393 25.0199V26.4846C22.7603 25.6867 21.7063 24.0321 21.7063 22.1656ZM25.4266 23.2134C25.1563 22.9337 25.0048 22.5631 25.0048 22.1656C25.0048 21.3313 25.6834 20.6526 26.5174 20.6526C27.3517 20.6526 28.0303 21.3313 28.0303 22.1656C28.0303 22.5688 27.8665 22.9529 27.5877 23.2335C27.2682 23.0364 26.8923 22.9227 26.4904 22.9227C26.1022 22.9227 25.7388 23.0289 25.4266 23.2134Z" fill="#168CF6"/>
<path d="M28.5937 13.3815C28.748 13.3815 28.8993 13.3188 29.0082 13.2097C29.1174 13.1007 29.1801 12.9494 29.1801 12.7952C29.1801 12.6411 29.1174 12.4898 29.0082 12.3806C28.8993 12.2717 28.748 12.209 28.5937 12.209C28.4397 12.209 28.2884 12.2717 28.1795 12.3806C28.0703 12.4898 28.0076 12.6411 28.0076 12.7952C28.0076 12.9494 28.0703 13.1007 28.1795 13.2097C28.2884 13.3188 28.4397 13.3815 28.5937 13.3815Z" fill="#168CF6"/>
</svg>
