<svg width="30" height="28" viewBox="0 0 30 28" fill="none" xmlns="http://www.w3.org/2000/svg">
<path d="M6.87245 27.7501V9.19582H0.705406V27.7501H6.87245ZM3.78973 6.66103C5.94029 6.66103 7.2789 5.23628 7.2789 3.45582C7.23884 1.6352 5.94037 0.25 3.83054 0.25C1.72104 0.25 0.341553 1.63523 0.341553 3.45582C0.341553 5.23636 1.67984 6.66103 3.74947 6.66103H3.78954H3.78973ZM10.2859 27.7501H16.4529V17.3885C16.4529 16.8339 16.493 16.28 16.6559 15.8836C17.1017 14.7756 18.1164 13.6281 19.82 13.6281C22.0516 13.6281 22.9444 15.3296 22.9444 17.8238V27.7499H29.111V17.1111C29.111 11.412 26.0686 8.76022 22.011 8.76022C18.6841 8.76022 17.2234 10.6198 16.4119 11.8864H16.4531V9.19543H10.286C10.367 10.9365 10.286 27.7497 10.286 27.7497L10.2859 27.7501Z" fill="white"/>
</svg>
