<svg width="413" height="94" viewBox="0 0 413 94" fill="none" xmlns="http://www.w3.org/2000/svg">
<path d="M112.095 60.2679L122.233 60.1643C122.625 62.5033 123.682 63.788 126.816 63.7561C129.519 63.7286 130.737 62.6677 130.721 61.0644C130.706 59.5227 129.162 58.7986 124.733 58.2272C116.121 57.2047 112.47 54.7137 112.402 47.9921C112.329 40.839 118.623 37.3211 126.057 37.2451C133.982 37.1647 139.539 39.8216 140.354 47.5207L130.401 47.6228C129.95 45.4685 128.772 44.4337 126.253 44.459C123.857 44.4837 122.639 45.5438 122.654 47.024C122.669 48.5657 124.151 49.1667 128.088 49.6208C137.007 50.6389 141.331 52.9388 141.402 59.845C141.479 67.492 135.862 71.0019 126.953 71.0932C117.797 71.1873 112.413 67.4188 112.095 60.2679Z" fill="white"/>
<path d="M145.663 37.9091L156.661 37.7969L156.711 42.7305C158.4 39.6304 161.751 36.8823 166.727 36.8316C170.967 36.7881 173.934 38.6079 175.506 42.1077C178.232 38.3175 182.025 36.6752 186.08 36.6339C192.162 36.5716 196.625 40.4733 196.707 48.5512L196.92 69.6405L185.924 69.7528L185.729 50.5136C185.696 47.2448 184.082 45.6582 181.562 45.6836C178.614 45.714 176.667 47.6453 176.703 51.1603L176.892 69.8454L166.018 69.9562L165.823 50.7171C165.79 47.4483 164.176 45.8617 161.657 45.887C158.708 45.9174 156.761 47.8488 156.797 51.3638L156.986 70.0489L145.989 70.1612L145.663 37.9091Z" fill="white"/>
<path d="M201.257 60.6531C201.181 53.0684 207.541 50.0436 218.23 49.9335L221.302 49.9024L221.294 49.1623C221.263 46.0789 220.505 44.0527 217.003 44.0882C213.993 44.1194 212.905 45.9174 212.68 47.9552L202.358 48.0609C202.771 40.2872 208.815 36.4007 217.6 36.3116C226.448 36.2211 232.136 39.8013 232.224 48.3723L232.435 69.277L221.746 69.3863L221.707 65.6251C220.195 67.9836 217.391 70.1706 212.229 70.2234C206.455 70.2821 201.327 67.4977 201.257 60.6531ZM221.385 58.1041L221.365 56.1301L218.477 56.1598C214.054 56.2054 212.096 57.0881 212.123 59.7392C212.141 61.5894 213.382 62.7481 215.962 62.722C219.096 62.6908 221.413 60.8783 221.385 58.1041Z" fill="white"/>
<path d="M238.376 36.9627L249.373 36.8504L249.438 43.2635C251.416 38.4327 254.774 36.3015 259.752 36.3117L259.856 46.6097C253.158 46.4939 249.493 48.6279 249.545 53.8078L249.7 69.1003L238.703 69.2126L238.376 36.9627Z" fill="white"/>
<path d="M266.981 58.5633L266.835 44.1954L262.965 44.2353L262.89 36.7121L266.76 36.6723L266.691 29.9515L277.689 29.8392L277.757 36.56L284.085 36.4956L284.162 44.0188L277.834 44.0832L277.969 57.4032C277.992 59.7458 279.17 60.7828 281.26 60.7618C282.489 60.7495 283.408 60.5547 284.387 60.1745L284.473 68.5608C283.063 68.9454 280.979 69.5218 278.399 69.5478C271.149 69.6224 267.058 66.1487 266.981 58.5633Z" fill="white"/>
<path d="M287.631 52.9873L287.626 52.4941C287.521 42.1338 295.135 35.5194 304.842 35.4202C313.627 35.3304 321.235 40.3104 321.352 51.9032L321.382 54.8013L298.774 55.0323C299.124 59.283 301.606 61.7248 305.538 61.685C309.162 61.6481 310.682 59.9681 311.09 57.805L321.411 57.6993C320.502 64.9864 314.953 69.1749 305.247 69.2734C295.171 69.3769 287.739 63.5316 287.631 52.9873ZM310.63 48.683C310.405 44.7994 308.48 42.6617 304.916 42.6972C301.598 42.7312 299.347 44.9123 298.834 48.8032L310.63 48.683Z" fill="white"/>
<path d="M324.625 59.3939C324.548 51.8092 330.907 48.7844 341.597 48.675L344.669 48.6432L344.662 47.9031C344.631 44.8197 343.872 42.7935 340.371 42.829C337.36 42.8601 336.271 44.6582 336.047 46.696L325.726 46.8017C326.138 39.028 332.182 35.1422 340.968 35.0524C349.815 34.9619 355.503 38.5421 355.591 47.1131L355.803 68.0177L345.112 68.1271L345.074 64.3659C343.562 66.7244 340.758 68.9113 335.597 68.9642C329.822 69.0229 324.693 66.2385 324.625 59.3939ZM344.752 56.8449L344.732 54.8709L341.845 54.9005C337.421 54.9462 335.463 55.8289 335.49 58.48C335.509 60.3302 336.75 61.4888 339.33 61.4628C342.463 61.4316 344.78 59.6191 344.752 56.8449Z" fill="white"/>
<path d="M361.743 35.7034L372.74 35.5912L372.79 40.5248C374.479 37.424 377.83 34.6766 382.807 34.6259C387.046 34.5824 390.013 36.4022 391.585 39.902C394.312 36.1118 398.105 34.4695 402.159 34.4275C408.242 34.3659 412.705 38.2676 412.787 46.3455L413 67.4348L402.004 67.5471L401.808 48.3079C401.775 45.0391 400.162 43.4525 397.643 43.4779C394.694 43.5083 392.747 45.4396 392.783 48.9546L392.972 67.6398L382.098 67.7506L381.903 48.5114C381.87 45.2426 380.256 43.656 377.738 43.6814C374.789 43.7118 372.842 45.6431 372.878 49.1581L373.067 67.8433L362.071 67.9555L361.743 35.7034Z" fill="white"/>
<path d="M58.4283 27.2047L23.4866 62.3997C23.1526 62.8378 22.7832 63.2571 22.3828 63.6605C17.1889 68.8961 8.85084 69.0083 3.75941 63.9204C-1.3277 58.8282 -1.24112 50.4593 3.95276 45.2273C4.14684 45.0318 4.34164 44.8471 4.54365 44.6712L40.0921 8.86499L58.4283 27.2047Z" fill="#42E4B3"/>
<path d="M39.5338 9.45904C34.329 14.6831 34.228 23.0516 39.3083 28.1507C44.3885 33.2498 52.7261 33.1485 57.9309 27.9244C63.1357 22.7003 63.2366 14.3318 58.1564 9.23272C53.0762 4.13365 44.7385 4.23498 39.5338 9.45904Z" fill="#168CF6"/>
<path d="M83.3532 53.4421C82.9521 53.8447 82.5351 54.2162 82.0993 54.5522L48.8675 87.9072C52.9532 82.673 52.6805 75.1796 47.9873 70.4733C43.0921 65.56 35.1862 65.4738 29.9556 70.1453L65.5667 34.4021C70.7931 29.7502 78.6911 29.8479 83.579 34.7497C88.6575 39.8506 88.5601 48.2159 83.3532 53.4421Z" fill="#168CF6"/>
<path d="M65.5473 34.4217L64.4023 35.5709C64.5777 35.3674 64.7609 35.1719 64.9557 34.9764C65.1505 34.7808 65.3453 34.5976 65.5473 34.4217Z" fill="#4D4D4D"/>
<path d="M48.8675 87.9072L47.263 89.5177L28.9585 71.1461L29.9556 70.1453C35.1863 65.4738 43.0914 65.56 47.9873 70.4734C52.6805 75.1796 52.9525 82.6731 48.8675 87.9072Z" fill="#4D4D4D"/>
<path d="M48.8674 87.9072C48.5326 88.3453 48.1625 88.7632 47.7614 89.1658C42.5581 94.3883 34.2201 94.4897 29.138 89.3924C24.0595 84.2916 24.1605 75.9226 29.3638 70.7C29.5586 70.5045 29.7534 70.3206 29.9554 70.1446C35.1861 65.4731 43.0913 65.5593 47.9872 70.4727C52.6804 75.1796 52.9524 82.6731 48.8674 87.9072Z" fill="#42E4B3"/>
</svg>
