<svg width="50" height="50" viewBox="0 0 50 50" fill="none" xmlns="http://www.w3.org/2000/svg">
<path d="M21.4311 14.3018C19.1791 12.0498 18.5202 8.80788 19.4368 5.92749L2.5667 22.7975C2.45284 22.8961 2.34329 22.999 2.23375 23.1086C-0.694112 26.0364 -0.751207 30.7283 2.10661 33.5885C4.96642 36.4463 9.65863 36.3915 12.5865 33.4613C12.8122 33.2356 13.0204 33.0012 13.2089 32.7556L29.6182 16.3463C28.8593 16.5664 28.0673 16.6826 27.2586 16.6826C25.0481 16.6822 22.9784 15.849 21.4311 14.3018Z" fill="white"/>
<path d="M22.2624 3.08074C22.1897 3.15343 22.1266 3.23211 22.0573 3.30713L22.4855 2.87891C22.4114 2.94729 22.3341 3.00903 22.2624 3.08074Z" fill="#F2F2F2"/>
<path d="M32.7419 2.95379C31.3351 1.54695 29.4848 0.846191 27.6185 0.846191C25.8382 0.846191 24.048 1.49284 22.6119 2.76424C22.5695 2.80175 22.5273 2.83993 22.4855 2.87876L22.0572 3.30699C19.3405 6.24647 19.3478 10.7724 22.1356 13.5601C23.5424 14.967 25.3927 15.6677 27.259 15.6677C28.9012 15.6677 30.553 15.1197 31.927 14.0378C32.1643 13.8509 32.396 13.6528 32.6155 13.4337C35.544 10.5045 35.6008 5.8126 32.7419 2.95379Z" fill="white"/>
<path d="M47.0477 17.2593C44.2974 14.5111 39.8528 14.4563 36.912 17.0641L36.9011 17.0751L36.2568 17.7194C36.2568 17.7194 36.2571 17.7194 36.2571 17.7191L19.4043 34.5719C20.208 34.3256 21.0462 34.1915 21.8986 34.1915H21.9219V34.1835C24.2456 34.1835 26.1875 35.0356 27.7348 36.5829C29.922 38.7682 30.6181 41.938 29.7779 44.7982L46.2148 28.3613C46.4601 28.1728 46.6948 27.9646 46.9205 27.7389C49.8507 24.809 49.9055 20.1191 47.0477 17.2593Z" fill="white"/>
<path d="M16.5398 37.4144C16.4648 37.4894 16.3997 37.5704 16.3284 37.6478L16.8721 37.104C16.7586 37.2023 16.6494 37.3052 16.5398 37.4144Z" fill="#F2F2F2"/>
<path d="M24.3538 35.6094C24.4553 35.6456 24.5586 35.6774 24.6588 35.7186C24.5582 35.6778 24.4553 35.6456 24.3538 35.6094Z" fill="#F2F2F2"/>
<path d="M19.5878 35.5533C19.7046 35.5154 19.8208 35.4743 19.9393 35.4424C19.8208 35.4743 19.7046 35.5154 19.5878 35.5533Z" fill="#F2F2F2"/>
<path d="M25.6427 36.22C25.7283 36.2718 25.8166 36.3182 25.9006 36.3737C25.8166 36.3182 25.7287 36.2718 25.6427 36.22Z" fill="#F2F2F2"/>
<path d="M25.0056 35.8784C25.1012 35.9236 25.1988 35.9641 25.2928 36.0135C25.1985 35.9641 25.1012 35.9236 25.0056 35.8784Z" fill="#F2F2F2"/>
<path d="M17.6479 36.5071C17.7738 36.4211 17.8986 36.3328 18.028 36.2551C17.8982 36.3328 17.7738 36.4211 17.6479 36.5071Z" fill="#F2F2F2"/>
<path d="M23.6877 35.4075C23.793 35.4337 23.8989 35.4563 24.0028 35.4875C23.8989 35.4566 23.793 35.434 23.6877 35.4075Z" fill="#F2F2F2"/>
<path d="M18.2896 36.1133C18.4077 36.0486 18.5246 35.9809 18.6451 35.9231C18.5246 35.9809 18.4077 36.0486 18.2896 36.1133Z" fill="#F2F2F2"/>
<path d="M23.0093 35.2712C23.1165 35.2875 23.2244 35.3005 23.3313 35.3214C23.2244 35.3005 23.1165 35.2875 23.0093 35.2712Z" fill="#F2F2F2"/>
<path d="M18.9344 35.7989C19.0506 35.7488 19.1662 35.6957 19.284 35.6519C19.1658 35.6957 19.0506 35.7491 18.9344 35.7989Z" fill="#F2F2F2"/>
<path d="M21.8986 35.1794C21.7987 35.1794 21.6988 35.1891 21.5989 35.1931C21.718 35.1881 21.8375 35.1814 21.9567 35.1824C21.9375 35.1821 21.9182 35.1794 21.8986 35.1794Z" fill="#F2F2F2"/>
<path d="M20.9243 35.2508C21.0432 35.2352 21.1617 35.2169 21.2812 35.2073C21.1617 35.2172 21.0432 35.2352 20.9243 35.2508Z" fill="#F2F2F2"/>
<path d="M20.2524 35.3706C20.3703 35.3441 20.4875 35.3149 20.6063 35.2939C20.4878 35.3149 20.3703 35.3441 20.2524 35.3706Z" fill="#F2F2F2"/>
<path d="M28.7788 44.6675C28.645 45.0914 28.4728 45.5063 28.262 45.9073C28.4728 45.5063 28.645 45.0914 28.7788 44.6675Z" fill="#F2F2F2"/>
<path d="M29.1209 42.7195C29.1027 43.157 29.0459 43.5942 28.9503 44.0257C29.0459 43.5945 29.1027 43.1573 29.1209 42.7195Z" fill="#F2F2F2"/>
<path d="M22.3235 35.1995C22.4317 35.2058 22.5399 35.2088 22.6478 35.2197C22.5399 35.2088 22.4317 35.2058 22.3235 35.1995Z" fill="#F2F2F2"/>
<path d="M26.2758 36.6487C26.3425 36.6995 26.4125 36.7446 26.4779 36.7981C26.4122 36.7446 26.3425 36.6995 26.2758 36.6487Z" fill="#F2F2F2"/>
<path d="M16.8953 37.0854C17.0705 36.9308 17.2505 36.7847 17.4354 36.6489C17.2501 36.7847 17.0702 36.9308 16.8953 37.0854Z" fill="#F2F2F2"/>
<path d="M29.0602 41.4109C28.8541 39.8952 28.1749 38.4419 27.0197 37.2873C26.8458 37.1134 26.6645 36.9504 26.478 36.798C26.4126 36.7446 26.3429 36.6994 26.2758 36.6487C26.152 36.5547 26.0291 36.4584 25.9007 36.3735C25.8167 36.318 25.7287 36.2716 25.6428 36.2198C25.5266 36.1497 25.4117 36.0764 25.2925 36.0136C25.1986 35.9642 25.1013 35.9237 25.0054 35.8785C24.8902 35.8241 24.776 35.7663 24.6585 35.7182C24.5582 35.6773 24.4553 35.6455 24.3534 35.609C24.2369 35.5675 24.1211 35.5227 24.0029 35.4871C23.899 35.4559 23.7928 35.4337 23.6879 35.4071C23.569 35.3773 23.4508 35.3444 23.331 35.3208C23.2244 35.2999 23.1166 35.287 23.009 35.2707C22.8885 35.2524 22.7687 35.2315 22.6475 35.2192C22.5396 35.2083 22.4314 35.2053 22.3232 35.199C22.201 35.192 22.0792 35.1827 21.9567 35.1817C21.8375 35.1807 21.718 35.1877 21.5989 35.1924C21.4926 35.1967 21.3867 35.198 21.2808 35.2066C21.1617 35.2166 21.0432 35.2345 20.924 35.2501C20.8181 35.2641 20.7115 35.2747 20.606 35.2933C20.4875 35.3142 20.37 35.3434 20.2521 35.37C20.1475 35.3935 20.0426 35.4134 19.9387 35.4413C19.8206 35.4732 19.7044 35.5144 19.5872 35.5522C19.4859 35.5851 19.3837 35.6136 19.2835 35.6511C19.1653 35.6949 19.0501 35.7481 18.9339 35.7982C18.8376 35.8397 18.7397 35.8765 18.6448 35.9223C18.5243 35.9801 18.4074 36.0481 18.2892 36.1125C18.2019 36.1603 18.113 36.2028 18.0273 36.2543C17.8979 36.332 17.7731 36.4203 17.6472 36.5062C17.5769 36.5544 17.5038 36.5972 17.4348 36.648C17.2499 36.7838 17.07 36.9298 16.8947 37.0845C16.8874 37.0908 16.8798 37.0961 16.8725 37.1024C16.8725 37.1024 16.8721 37.1028 16.8718 37.1031L16.328 37.6468C16.3227 37.6525 16.3177 37.6585 16.3124 37.6641C13.6189 40.6033 13.6335 45.1122 16.4124 47.8934C17.8195 49.2995 19.6702 50 21.5361 50C23.4621 50 25.4047 49.2534 26.8919 47.7662C27.1176 47.5405 27.3258 47.3061 27.5143 47.0605C27.8018 46.6937 28.0508 46.3069 28.2612 45.9063C28.472 45.5053 28.6443 45.0903 28.7781 44.6664C28.8451 44.4546 28.9022 44.2405 28.95 44.0247C29.0453 43.5935 29.1021 43.1563 29.1207 42.7185C29.1393 42.2806 29.1193 41.8438 29.0602 41.4109Z" fill="white"/>
</svg>
