<svg width="25" height="26" viewBox="0 0 25 26" fill="none" xmlns="http://www.w3.org/2000/svg">
<path d="M20.8711 4.46534C18.6206 2.20947 15.6236 0.96875 12.4385 0.96875C5.86427 0.96875 0.514649 6.31837 0.514649 12.8926C0.514649 14.9927 1.0625 17.0445 2.10449 18.8545L0.412598 25.0313L6.73438 23.3716C8.47462 24.3223 10.4351 24.8218 12.4331 24.8218H12.4385C19.0074 24.8218 24.4751 19.4722 24.4751 12.898C24.4751 9.7129 23.1216 6.7212 20.8711 4.46534ZM12.4385 22.813C10.6553 22.813 8.90968 22.335 7.38966 21.4326L7.02979 21.2178L3.28077 22.2007L4.27979 18.543L4.04346 18.167C3.04981 16.5879 2.52881 14.7671 2.52881 12.8926C2.52881 7.43019 6.97608 2.98291 12.4439 2.98291C15.0918 2.98291 17.5786 4.01416 19.4478 5.88868C21.3169 7.76319 22.4663 10.25 22.461 12.898C22.461 18.3657 17.9009 22.813 12.4385 22.813ZM17.8741 15.3902C17.5786 15.2398 16.1123 14.52 15.8384 14.4234C15.5645 14.3213 15.3657 14.273 15.167 14.5737C14.9683 14.8745 14.3989 15.5405 14.2217 15.7447C14.0498 15.9434 13.8726 15.9702 13.5772 15.8198C11.8262 14.9444 10.6768 14.2569 9.52199 12.2749C9.21583 11.7486 9.82814 11.7861 10.3975 10.6475C10.4942 10.4487 10.4458 10.2769 10.3706 10.1265C10.2954 9.97609 9.69923 8.50978 9.45216 7.91358C9.21046 7.33351 8.96339 7.41407 8.78077 7.40333C8.6089 7.39259 8.41017 7.39259 8.21144 7.39259C8.01271 7.39259 7.69044 7.46778 7.41651 7.76319C7.14259 8.06398 6.37452 8.7837 6.37452 10.25C6.37452 11.7163 7.44337 13.1343 7.58839 13.333C7.73878 13.5318 9.68849 16.5396 12.6802 17.834C14.5708 18.6504 15.312 18.7202 16.2573 18.5806C16.8321 18.4947 18.0191 17.8609 18.2661 17.1626C18.5132 16.4644 18.5132 15.8682 18.438 15.7447C18.3682 15.6104 18.1695 15.5352 17.8741 15.3902Z" fill="white"/>
</svg>
